<?xml version="1.0" encoding="UTF-8"?>
<svg
    xmlns="http://www.w3.org/2000/svg"
    width="250.34"
    height="362.32"
    viewBox="0 0 250.34 362.32">
  <!-- Generator: Adobe Illustrator 30.5.1, SVG Export Plug-In . SVG Version: 2.1.4 Build 3)  -->
  <path d="M250.34,145.19c0,80.19-125.17,217.13-125.17,217.13,0,0-125.17-136.94-125.17-217.13S56.04,0,125.17,0s125.17,65,125.17,145.19Z" fill="#0c2340"/>
  <circle cx="125.17" cy="120.19" r="92.19" fill="#e6f4f8"/>
  <g>
    <path d="M89.45,94.87c-1.04,1.07-2.62,1.02-3.5.02s-.75-2.46.3-3.36c.9-.78,1.65-1.6,2.65-2.27s2.39-.44,3.16.56c1.57,2.06-1.08,3.48-2.6,5.04Z" fill="#007a78"/>
    <path d="M78.98,150.51l-1.46-6.9h97.77c-.46,2.36-1.06,4.61-1.95,6.91h-94.36Z" fill="#e1e6f1"/>
    <path d="M84.65,162.1c-1.24-2.26-2.65-4.47-3.34-6.93h90.14c-1.14,2.57-2.43,4.7-3.91,6.94h-82.88Z" fill="#e1e6f1"/>
    <path d="M94.19,173.65c-.04-.32-.25-.58-.55-.85-1.7-1.53-3.17-3.14-4.65-4.88-.31-.36-.56-.66-.39-1.16h75.33c-2.08,2.59-4.4,4.72-7.01,6.9h-62.73Z" fill="#e1e6f1"/>
    <path d="M107.71,182.65c.2-.03.2-.22.07-.28-2.4-1.18-4.75-2.31-6.63-4.06h48.85c-12.99,7.48-28.28,8.84-42.28,4.34Z" fill="#e1e6f1"/>
    <g>
      <path d="M133.22,78.81c.21.41.63.47,1.13.55,2.77.45,5.3,1.3,7.97,2.12.36.11.52.33.51.71-6.34.85-12.49,4.65-16.62,9.71-.82,1.01-.38,2.47.47,3.12,1.05.8,2.38.61,3.3-.42,5.64-6.35,14.02-10.38,21.82-6.07-1.48,3.27-3.57,5.8-6.01,8.27l-12.04,12.19c-7.76,7.86-13.04,19.44-16.72,29.89l-3.27.06c.55-12.27.05-27.52-4.41-38.96-1.87-4.78-4.1-9.2-6.27-13.69,3.59-2.33,7.47-4,11.51-5.36.44.85,1.02,1.67,1.35,2.69.46,1.44,1.93,2.01,3.11,1.54,1.38-.55,1.85-2.05,1.17-3.41-.35-.71-.58-1.49-.91-2.09,3.31-.8,6.63-.86,9.97-1.27.9,1.21,2.58,1.18,3.96.44Z" fill="#e1e6f1"/>
      <path d="M76.57,138.96c-2.07-19.52,6.51-38.73,22.42-50.33,2.07,4.25,4.14,8.47,6,12.97,4.22,11.67,4.61,24.98,4.04,37.38h-32.46Z" fill="#e1e6f1"/>
      <path d="M166.44,98.76c3.96,4.48,6.8,9.81,8.83,15.46-1.19.32-1.84,1.69-1.41,3,2.28,7.04,3.02,14.33,2.19,21.75h-16.2c1.53-8.72-5.13-16.48-13.85-16.44-8.53.04-15.17,7.77-13.61,16.44l-10.49-.02c4.25-11.47,8.41-20.07,17.09-28.8l10.72-10.78c2.45-2.47,4.42-5.13,5.97-8.3,7.16,5.9,8.75,14.76,6.78,23.74-.3,1.38.51,2.62,1.74,2.89,1.43.31,2.58-.63,2.88-2.11,1.14-5.68,1.2-11.45-.67-16.83Z" fill="#e1e6f1"/>
      <path d="M155.09,138.95h-17.91c-1.08-3.88.43-7.78,3.43-9.96,3.21-2.33,7.41-2.42,10.66-.26s4.91,6.09,3.81,10.22Z" fill="#e1e6f1"/>
    </g>
    <path d="M77.53,143.61l1.46,6.9-4.33-.04c-.82-2.32-1.42-4.45-1.93-6.88l4.8.02Z" fill="#fefefe"/>
    <path d="M81.31,155.16c.69,2.47,2.1,4.68,3.34,6.93l-4.19-.04c-1.44-2.24-2.68-4.31-3.84-6.83l4.69-.06Z" fill="#fefefe"/>
    <path d="M88.6,166.76c-.17.5.08.8.39,1.16,1.48,1.74,2.95,3.36,4.65,4.88.3.27.5.53.55.85-1.04,0-2.25.24-3.12-.13-2.65-1.99-4.82-4.26-6.96-6.71l4.48-.05Z" fill="#fefefe"/>
    <path d="M101.15,178.31c1.88,1.74,4.23,2.88,6.63,4.06.13.06.13.25-.07.28-3.3-1.06-6.23-2.41-9.35-4.13,1.07-.53,1.86-.06,2.79-.21Z" fill="#fefefe"/>
    <polygon points="98.2 178.18 98.48 178.31 98.2 178.45 98.07 178.31 98.2 178.18" fill="#e1e6f1"/>
    <path d="M119.29,79.65c.34.59.56,1.38.91,2.09.68,1.36.21,2.86-1.17,3.41-1.18.47-2.65-.1-3.11-1.54-.33-1.02-.91-1.85-1.35-2.69-3.21-6.22-9.57-11.28-17.16-9.97.36,5.7,3.33,10.55,5.65,15.33,2.18,4.49,4.41,8.91,6.27,13.69,4.47,11.44,4.96,26.7,4.41,38.96l3.27-.06c3.68-10.45,8.96-22.03,16.72-29.89l12.04-12.19c2.43-2.47,4.52-5,6.01-8.27-7.8-4.31-16.18-.28-21.82,6.07-.92,1.04-2.24,1.23-3.3.42-.85-.65-1.29-2.11-.47-3.12,4.13-5.06,10.28-8.86,16.62-9.71,2.41-.33,4.81.05,7.52.55-3.34-5.94-11.17-5.76-17.12-3.92-1.37.74-3.06.77-3.96-.44-.62-1.3-.3-2.92,1.18-3.47,8.12-3.01,18.11-2.94,23.54,4.58.05-3.59-1.94-6.5-4.48-8.72-1-.87-1-2.4-.18-3.26.87-.91,2.27-.99,3.31-.13,3.41,2.83,5.49,6.7,6.14,11.17,5.13-3.81,11.22-4.98,17.13-3.39,1.32.36,1.98,1.75,1.64,2.84-.37,1.17-1.53,1.95-2.82,1.62-3.93-1.01-8.14-.68-11.61,1.7,7.28-.63,14.09,1.35,19.37,6.04,1.1.98,1.08,2.34.28,3.22-.86.95-2.2,1.12-3.23.3-3.38-2.69-7.25-4.6-11.71-4.95,6.51,3.21,8.9,11.45,8.07,18.3-.17,1.36-1.57,2.04-2.66,1.84-3.04-.55-.89-4.43-2.83-10.4-1.38-4.24-5.45-6.98-9.79-6.39,2.75,3.01,4.66,6.06,5.85,9.49,1.87,5.38,1.81,11.15.67,16.83-.3,1.47-1.45,2.42-2.88,2.11-1.23-.27-2.04-1.51-1.74-2.89,1.97-8.98.38-17.85-6.78-23.74-1.55,3.18-3.52,5.84-5.97,8.3l-10.72,10.78c-8.68,8.73-12.84,17.32-17.09,28.8l10.49.02c-1.56-8.67,5.08-16.4,13.61-16.44,8.72-.04,15.38,7.72,13.85,16.43h16.2c.82-7.41.09-14.7-2.19-21.74-.43-1.3.22-2.67,1.41-3,1.27-.34,2.57.23,2.98,1.51,7.61,23.57-.92,49.19-21.12,63.53-8.42,5.98-18.29,9.6-28.52,10.62l-9.75-.16c-14.42-1.48-27.71-8.07-37.36-18.84-17.71-19.76-19.38-49.08-3.83-70.63.72-1,2.08-1.18,3.04-.61,1.01.59,1.53,2.12.75,3.22-7.48,10.47-10.92,23.18-9.47,36.08h4.58s32.46.03,32.46.03c.57-12.4.17-25.7-4.04-37.38-1.86-4.5-3.92-8.72-6-12.97l-3.16-6.49c-1.56-3.2-2.6-6.44-3.08-10.02-4.61,1.69-7.99,4.76-10.39,8.74-2.23,3.7-3.2,7.75-3.81,11.99-.19,1.3-1.69,1.95-2.68,1.75-1.26-.25-1.98-1.35-1.83-2.72,1.06-9.83,5.69-18.3,14.78-23.1-4.35-1.93-8.96-.47-11.58,3.15-1.61,2.22-2.62,4.61-3.4,7.23-.37,1.23-1.78,1.79-2.83,1.47s-1.86-1.39-1.58-2.64c1.51-6.68,5.97-13.16,13.14-14.7-4.35-1.18-8.58-.32-12.63,1.04-1.33.45-2.47-.36-2.83-1.53s.2-2.3,1.45-2.82c6.56-2.68,13.66-2.44,20.33.48-2.49-3.35-6.25-4.91-10.2-5.29-1.36-.13-2.34-1.05-2.37-2.39-.02-1.04,1.05-2.38,2.39-2.28,6.23.43,11.66,3.55,15.23,8.75,2.05-3.96,5.07-6.64,8.84-8.38,1.37-.63,2.74-.47,3.46.89.62,1.18.22,2.67-1.21,3.25-3.09,1.25-5.72,3.48-6.97,6.77,7.7-5.46,17.1-2.33,23.93,3.21,1.16.94.94,2.58.1,3.37-1.08,1.01-2.29.79-3.39-.06-5.26-4.06-13.01-7.07-18.3-2.26,9.24.54,14.71,6.25,18.89,13.6ZM155.09,138.95c1.1-4.13-.58-8.07-3.81-10.22s-7.45-2.07-10.66.26c-3.01,2.18-4.51,6.08-3.43,9.97h17.91ZM78.98,150.51h94.36c.9-2.29,1.5-4.54,1.95-6.9h-97.77s-4.8-.02-4.8-.02c.5,2.43,1.11,4.56,1.93,6.88l4.33.04ZM84.65,162.1h82.88c1.48-2.23,2.77-4.37,3.91-6.93h-90.14s-4.69.06-4.69.06c1.15,2.52,2.39,4.6,3.84,6.83l4.19.04ZM94.19,173.65h62.73c2.61-2.17,4.93-4.3,7.01-6.9h-75.33s-4.48.06-4.48.06c2.13,2.46,4.31,4.73,6.96,6.71.87.36,2.07.13,3.12.13ZM98.2,178.18l-.14.14.14.14.28-.14-.28-.14ZM107.71,182.65c14,4.5,29.3,3.14,42.28-4.34h-48.85c-.93.14-1.72-.33-2.79.21,3.12,1.72,6.05,3.07,9.35,4.13Z" fill="#007a78"/>
  </g>
</svg>