<?xml version="1.0" encoding="UTF-8"?>
<svg
    xmlns="http://www.w3.org/2000/svg"
    width="250.34"
    height="362.32"
    viewBox="0 0 250.34 362.32">
  <!-- Generator: Adobe Illustrator 30.5.1, SVG Export Plug-In . SVG Version: 2.1.4 Build 3)  -->
  <path d="M250.34,145.19c0,80.19-125.17,217.13-125.17,217.13,0,0-125.17-136.94-125.17-217.13S56.04,0,125.17,0s125.17,65,125.17,145.19Z" fill="#8f4f06"/>
  <circle cx="125.17" cy="122.84" r="92.19" fill="#fffdf0"/>
  <g display="none">
    <path d="M145.05,175.21c-7.04-2.58-13.71-7.58-16.27-14.74-2.09-5.87-1.36-12.45,2.09-17.66,3.89-5.89,11.61-8.07,18.03-5.28,2.41,1.05,4.18,2.99,5.43,5.19l2.35,4.14c.81,1.42,2.02,2.09,3.66,2.24,2.39.21,4.59-.7,5.92-2.78,1.43-2.24,2.15-4.91,1.84-7.64-.73-6.49-9.65-9.04-15.78-8.03l-7.84,1.91c-3.82.93-7.61-.45-10.4-3.2-4.72-4.67-7.25-13.58-7.39-20.15l-.21-9.56c-.14-6.58.46-14.97,3.27-20.8,1.28-2.66,3.2-4.72,5.84-6.1,8.59-4.49,21.62-4.32,31.39-3.97,4.89.18,9.6.73,14.27,2.13,7.1,2.12,13.04,6.57,12.07,14.46-.42,3.43-1.98,6.38-4.65,8.62-5.2,4.36-12.69,5.55-19.46,5.93-2.59.15-5,.18-7.58-.03l-5.11-.41c-.19,1.19-.2,2.37.25,3.53,7.61-.98,15.29-.63,22.27,2.21,11.38,4.63,17.21,14.76,18.04,26.81.59,8.61-.28,18.17-3.58,26.14-5.88,14.17-19.35,19.36-34.03,19.36-4.99,0-9.76-.61-14.43-2.31h0ZM159.91,174.28c8.94-.11,18.09-2.09,24.63-8.38,6.92-6.66,8.95-16.55,9.47-25.92.35-6.18-.14-12.48-2.45-18.21s-6.6-10.28-12.21-12.93c-7.91-3.74-16.95-3.68-25.47-2.13l-.47-4.01c-.33-2.79-.25-7.35,1.7-6.88,2.75.65,5.43.81,8.27.87,7.37.14,15.45-.22,21.81-4.04,3.99-2.39,6.06-7.12,4.64-11.64s-7.36-6.64-11.84-7.66c-5.2-1.19-10.34-1.37-15.69-1.47-7.89-.14-17.16.14-24.35,3.23-2.96,1.27-4.92,3.57-6.03,6.59-1.22,3.32-1.87,6.72-2.05,10.27l-.21,3.94c-.17,3.25.05,6.35.07,9.63.04,5.54.74,10.89,2.93,15.96s6.08,9.23,11.78,7.83l7.8-1.91c4.23-.62,8.55.23,12.33,2.01,4.85,2.29,7.54,7.13,6.66,12.38-1.09,6.46-5.21,11.58-11.87,10.44-2.13-.36-3.96-1.3-5.06-3.2l-2.46-4.24c-2.29-3.94-5.12-5.54-9.81-5.15-3.93.33-7.25,2.38-9.16,5.89-2.36,4.34-2.71,9.55-.97,14.22,1.02,2.72,2.73,4.93,4.83,6.88,6.11,5.69,14.87,7.77,23.16,7.67l.02-.04h0Z" fill="#b35422" stroke="#b35422" stroke-miterlimit="10"/>
    <path d="M159.91,174.28c-8.29.1-17.05-1.98-23.16-7.67-2.1-1.95-3.81-4.16-4.83-6.88-1.74-4.67-1.39-9.88.97-14.22,1.91-3.51,5.23-5.56,9.16-5.89,4.69-.39,7.52,1.21,9.81,5.15l2.46,4.24c1.11,1.9,2.93,2.84,5.06,3.2,6.65,1.14,10.78-3.98,11.87-10.44.88-5.25-1.82-10.09-6.66-12.38-3.78-1.79-8.11-2.64-12.33-2.01l-7.8,1.91c-5.7,1.4-9.57-2.71-11.78-7.83s-2.89-10.42-2.93-15.96c-.03-3.28-.24-6.38-.07-9.63l.21-3.94c.18-3.55.83-6.95,2.05-10.27,1.11-3.02,3.07-5.32,6.03-6.59,7.18-3.08,16.46-3.37,24.35-3.23,5.35.1,10.5.28,15.69,1.47,4.48,1.03,10.46,3.27,11.84,7.66s-.65,9.25-4.64,11.64c-6.36,3.82-14.44,4.19-21.81,4.04-2.83-.06-5.52-.21-8.27-.87-1.95-.46-2.03,4.1-1.7,6.88l.47,4.01c8.52-1.55,17.56-1.61,25.47,2.13,5.6,2.65,9.88,7.19,12.21,12.93s2.8,12.04,2.45,18.21c-.53,9.38-2.56,19.26-9.47,25.92-6.54,6.29-15.69,8.27-24.63,8.38l-.02.04h0ZM148.03,81.09c1.18-.06,2.06-.54,2.13-1.71.05-.98-.61-1.96-1.79-1.96-2.44-.01-4.82.38-6.99,1.56-3.37,1.83-5.4,5.36-5.56,9.18-.05,1.23.81,1.99,1.85,1.95s1.53-.8,1.68-1.94c.66-5.06,3.6-6.82,8.68-7.08ZM170.76,114.82c.99.24,1.69-.37,1.93-1.33.11-.46.15-1.17-.17-1.55-.23-.27-.66-.6-1.24-.72-4.69-.95-9.56-.99-14.31-.24-.81.13-1.01,1.2-.95,1.77s.35,1.59,1.13,1.54l4.55-.27c3.07-.18,6.07.08,9.07.8h0ZM180.22,116.94c-1.05-1.71-2.71-3.08-4.52-3.78-.77-.3-1.41.52-1.67.97-.3.53-.46,1.45.1,1.86,1.33.97,2.5,1.93,3.63,3.12.54.56,1.56.18,2.03-.29.4-.39.91-1.09.43-1.88ZM143.06,147.23c1.24.07,1.94-1,1.92-1.94-.02-1.06-.95-1.67-2.11-1.73-2.98-.17-5.53,1.69-7.04,4.23-.65,1.1-.49,2.14.6,2.78,2.49,1.47,2.29-3.58,6.62-3.33h0ZM176.15,153.65c.99-1.3,1.67-2.75,1.98-4.33.23-1.15-.39-1.97-1.44-2.18-.86-.16-1.69.36-2,1.36-1.08,3.53-3.78,6.12-7.37,7.12-1.11.31-1.74,1.17-1.46,2.16.91,3.26,7.43-.41,10.29-4.15v.02h0Z" fill="#b35422" stroke="#b35422" stroke-miterlimit="10"/>
    <path d="M148.03,81.09c-5.08.26-8.02,2.01-8.68,7.08-.15,1.14-.6,1.9-1.68,1.94s-1.91-.72-1.85-1.95c.16-3.82,2.19-7.35,5.56-9.18,2.17-1.18,4.55-1.57,6.99-1.56,1.18,0,1.84.98,1.79,1.96-.06,1.17-.95,1.65-2.13,1.71Z" fill="#b35422" stroke="#b35422" stroke-miterlimit="10"/>
    <path d="M170.76,114.82c-3-.71-6-.98-9.07-.8l-4.55.27c-.78.05-1.07-1-1.13-1.54s.14-1.64.95-1.77c4.74-.75,9.61-.71,14.31.24.58.12,1.01.45,1.24.72.32.38.29,1.09.17,1.55-.24.96-.94,1.56-1.93,1.33h0Z" fill="#b35422" stroke="#b35422" stroke-miterlimit="10"/>
    <path d="M176.15,153.65c-2.85,3.74-9.38,7.41-10.29,4.15-.28-.99.35-1.86,1.46-2.16,3.59-1,6.29-3.59,7.37-7.12.31-1,1.15-1.53,2-1.36,1.05.2,1.67,1.02,1.44,2.18-.31,1.58-.99,3.03-1.98,4.33v-.02h0Z" fill="#b35422" stroke="#b35422" stroke-miterlimit="10"/>
    <path d="M143.06,147.23c-4.33-.25-4.13,4.8-6.62,3.33-1.09-.64-1.25-1.68-.6-2.78,1.5-2.54,4.05-4.39,7.04-4.23,1.15.07,2.09.67,2.11,1.73.02.94-.68,2.01-1.92,1.94h0Z" fill="#b35422" stroke="#b35422" stroke-miterlimit="10"/>
    <path d="M180.22,116.94c.48.79-.03,1.49-.43,1.88-.47.46-1.5.85-2.03.29-1.13-1.19-2.29-2.15-3.63-3.12-.56-.41-.41-1.34-.1-1.86.25-.44.9-1.26,1.67-.97,1.81.7,3.48,2.07,4.52,3.78Z" fill="#b35422" stroke="#b35422" stroke-miterlimit="10"/>
  </g>
  <g>
    <path d="M157.91,90.09c4.76,5.76,7.55,12.84,8.13,20.37,1.45.38,2.62,1.19,2.61,2.83l-.05,9.31c0,1.45-1.32,2.31-2.66,2.37l-2.39.11-1.45,14.52c1.14.34,2.08,1.11,1.97,2.35l-2.71,30.93c-.14,1.54-.94,2.33-2.35,2.84l-1.77,18.64c0,2.69-1.47,4.59-4.13,5.39l-55.69-.06c-2,0-3.93-2.12-4.11-3.92l-1.99-20.07c-1.35-.48-2.23-1.31-2.35-2.81l-.63-7.35c.06.24.55.28.64.09l.37-.76,2.06-2.11c.52-.54.68-1.27,1.34-1.64l.84,9.7h63.16s2.32-26.55,2.32-26.55l-55.81-.02c.38-2.07,2.93-3.02,3.49-4.76h42.89s.93-6.97.93-6.97c-2.61-.04-4.84.71-7.14,1.66l-2.79,1.15c-5.93,1.78-12.07,1.78-18.11.6-.77-1.83,1.46-2.4,2.54-4.42,5.36.78,10.89.61,15.99-1.48,3.28-1.34,6.42-2.6,9.99-2.3l.36-2.73-33.06-.02c-.27-.69.19-1.06.72-1.55l2.53-2.33c.42-.39,1.46-.21,1.33-.92l40.84.02.02-4.85h-23.72c-.07-.32-.14-.99.14-1.27l2.27-2.24c.23-.23.77-.25.85-.59.07-.28.05-.52-.17-.69h18.06c-.45-6.64-3.03-12.79-7.28-17.8,1.18-1.26,1.64-2.87,3.95-2.71ZM157.26,139.22l1.46-14.13h-2.44s-1.76,14.33-1.76,14.33c.79.14,2.09.36,2.74-.2ZM100.54,185.7l-.48-4.62c-.16-1.53.54-2.74,2.04-2.96,1.1-.16,2.47.57,2.63,1.96l.68,5.65c.13,1.07,1.11,1.97,2.27,1.97h34.95c1.56-.13,2.29-1.29,2.44-2.73l.96-9.34-49.84.04,1.77,19.28,50.4.04c1.5.1,2.73.02,4.05-.19l1.78-19.11h-3.31s-1.15,10.34-1.15,10.34c-.42,3.75-3.5,6.51-7.38,6.5l-34.96-.08c-3.77,0-6.47-3.15-6.85-6.74Z" fill="#b35422"/>
    <path d="M157.91,90.09c-2.31-.16-2.77,1.45-3.95,2.71-5.46-6.44-13.07-10.39-21.55-11v28.79s10.76,0,10.76,0c.22.16.24.4.17.69-.09.34-.62.36-.85.59l-2.27,2.24c-.28.28-.22.95-.14,1.27l-32.08-.04c-1.28,0-2.02-1.22-2.08-2.22-.06-1.18.81-2.22,2.1-2.47l9.91-.08v-28.82c-15.26,1.19-27.64,13.18-28.88,28.73l9.85.17c1.34.02,2.21,1.29,2.13,2.47-.07,1.12-1.1,2.23-2.41,2.23l-12.07.02v4.88s36.39-.04,36.39-.04c.13.71-.91.53-1.33.92l-2.53,2.33c-.53.49-.99.86-.72,1.55l-19.48.03c.16,1.16.36,2.09.4,3.42,6.06-1.34,12.11-.71,18.04,1.09,2.64.8,5.09,1.6,7.76,1.98-1.08,2.02-3.31,2.59-2.54,4.42-2.82-.55-5.37-1.52-8.16-2.27-4.7-1.25-9.44-1.63-14.29-.46l.57,6.23,6.11.04c-.56,1.74-3.11,2.69-3.49,4.76l-11.98.04,1.47,16.83c-.65.36-.81,1.1-1.34,1.64l-2.06,2.11-.37.76c-.09.19-.58.15-.64-.09l-2.05-23.32c-.12-1.35.75-2.18,1.95-2.69l-1.41-14.46-2.41-.11c-1.56-.07-2.7-1.08-2.7-2.65v-9.03c.02-1.57,1.08-2.56,2.61-2.73,1.26-18.05,15.68-32.36,33.61-33.57v-10.69c.02-2.06,1.09-3.47,2.69-4.59l20.9-14.62c1.71-1.19,3.45-1.6,5.38-.62l4.98,2.52c1.54.78,2.26,2.41,2.31,3.91s-.57,3.01-1.95,3.99l-19.79,13.91.04,6.25c10.1.65,19.12,5.41,25.44,13.06ZM127.57,71.5c0-1.66.51-3.37,1.84-4.31l19.97-14.06-3.41-1.88c-.86-.47-1.53-.5-2.33.06l-20.88,14.65-.02,10.86h4.82s0-5.34,0-5.34ZM127.57,81.63h-4.83v28.98h4.83v-28.98ZM95.78,139.41l-1.74-14.32c-.84-.13-1.52-.13-2.45,0l1.53,14.32c1,.22,1.85.19,2.66,0Z" fill="#b35422"/>
    <path d="M135.99,158.58c.36,2.84-.62,5.31-2.29,7.07s-4.32,2.76-7.1,2.52c-6.01-.52-11.22-5.24-12.21-11.16-.48-2.88.38-5.58,2.23-7.5s4.48-2.88,7.41-2.54c5.98.68,11.18,5.42,11.97,11.61ZM129.38,156.41c.23.32.84.83,1.36.67-1.77-3.31-4.9-5.74-8.71-5.26,2.18,2.75,5.32,1.69,7.35,4.59ZM128.98,163c-1.29-1.78-2.36-2.91-3.67-4.12-2.37-.36-4.2-1.61-6.23-3.01.45,3.39,2.74,5.74,5.58,7.04,1.41.43,2.91.83,4.32.08Z" fill="#b35422"/>
  </g>
</svg>