<?xml version="1.0" encoding="UTF-8"?>
<svg
    xmlns="http://www.w3.org/2000/svg"
    width="250.34"
    height="362.32"
    viewBox="0 0 250.34 362.32">
  <!-- Generator: Adobe Illustrator 30.5.1, SVG Export Plug-In . SVG Version: 2.1.4 Build 3)  -->
  <path d="M250.34,145.19c0,80.19-125.17,217.13-125.17,217.13,0,0-125.17-136.94-125.17-217.13S56.04,0,125.17,0s125.17,65,125.17,145.19Z" fill="#0c2340"/>
  <circle cx="125.17" cy="120.19" r="92.19" fill="#e6f4f8"/>
  <g>
    <g>
      <path d="M86.44,92c-.7,5.25,3.83,10.04,9.25,9.86,1.21-.04,1.86-1.18,1.81-2.11-.06-1.04-.86-1.9-2.04-1.92-2.46-.04-4.55-1.78-4.95-4.2,4.67.93,9.41,1.61,14.3,1.63.1,0,.15-.17.07-.21,1.56.61,2.94,1.08,4.09.22,4.79-.23,9.56-.74,14.25-1.73l.3-.04c2.96,2.67,6.65,4.29,10.42,5.62-1.82.67-3.57.79-5.63.83-3.62.07-9.55.97-12.67,2.25l-4.14,1.7-1.05.78c-.29.21-.83.17-1.31.45-3.38,1.95-6.41,4.25-9.06,6.96-6.77,6.91-11,16.06-11.54,25.72-.05.98-.22,1.96-.3,3.03-.21-.18-.55-.27-.87-.59l-2.91-2.96c-2.23-2.27-3.95-5-5.42-7.69-7.02-12.85-6.65-28.58,1.1-40.97,2.03,1.34,4.01,2.61,6.31,3.38ZM89.22,112.05c-2.87-.08-4.92-2.35-4.96-5.06-.02-1.27-1.04-2.1-2.15-2.03s-1.98,1-1.93,2.29c.22,4.96,4.17,8.84,9.17,8.88,1.26.01,2.09-1.05,2.03-2.14s-.84-1.9-2.17-1.94Z" fill="#fbbb04"/>
      <path d="M112.82,69.4c-.63,9.22,3.32,18.19,10.4,24.13-4.69.99-9.46,1.51-14.25,1.73.39-.6.69-1.28.46-2.08-.13-.47-.6-1.24-1.33-1.35-3.59-.53-5.95-3.71-5.35-7.29.21-1.25-.74-2.24-1.81-2.33s-2.07.58-2.27,1.79c-.77,4.71,1.86,9.33,6.2,11.04.08.04.03.21-.07.21-4.88-.02-9.62-.7-14.3-1.63l-.25-1.54c-.14-.87-1.02-1.3-1.8-1.36-.62-.05-1.89.35-2.02,1.27-2.3-.78-4.28-2.04-6.31-3.38.08.04.1-.11.02-.14,6.33-9.9,16.55-16.79,28.28-18.61.6-.09,1-.04,1.43-.12.97-.2,1.97-.44,2.96-.34Z" fill="#f8e009"/>
      <path d="M147.05,85.11c-7.47,4-15.36,6.78-23.52,8.38l-.3.04c-7.08-5.95-11.03-14.91-10.4-24.13,13.28-.76,26.24,5.18,34.23,15.71ZM129.09,79.54c0-1.13-.91-2.04-2.04-2.04s-2.04.91-2.04,2.04.91,2.04,2.04,2.04,2.04-.91,2.04-2.04Z" fill="#a9e0f8"/>
      <path d="M109.86,69.74c-.43.09-.83.03-1.43.12-11.73,1.81-21.95,8.7-28.28,18.61-2.44-1.77-4.37-4.34-5.03-7.43-.11-.51-.09-1-.58-1.33,6.45-9.9,17.04-16.65,28.87-18.15l5.09,7.77c.27.41,1.01.37,1.35.42Z" fill="#fbbb04"/>
      <path d="M80.15,88.47c.09.03.06.18-.02.14-7.75,12.39-8.13,28.12-1.1,40.97l-1.29-1.13c-5.52-6.56-8.93-14.46-9.68-23.06v-6.99c.55-6.8,2.85-13.13,6.48-18.69.49.33.47.82.58,1.33.66,3.1,2.58,5.66,5.03,7.43Z" fill="#e59730"/>
      <path d="M95.64,138.65c8.5,5.21,18.76,7.13,28.65,5.13l4.43,4.43c-3.49,1.34-6.96,2.39-10.65,2.39h-6.51c-8.7-.71-16.89-4.11-23.33-9.78.08-1.08.25-2.06.3-3.03l3.48.4c1.14.14,2.67-.13,3.63.46Z" fill="#e59730"/>
      <path d="M133.94,99.11c-3.77-1.34-7.45-2.95-10.42-5.62,8.16-1.6,16.05-4.37,23.52-8.38-.12.13.23.35.47.4,1.1,1.65,2.17,3.14,3.11,4.98l-12.61,6.6c-1.43.75-2.68,1.5-4.08,2.02Z" fill="#7fc9f1"/>
      <path d="M124.29,143.78c-9.89,2-20.15.08-28.65-5.13,6.62-.12,13.15-1.5,19.05-4.5l9.6,9.63Z" fill="#fbbb04"/>
      <path d="M110.44,104.67c3.58,5.06,3.6,11.64-1.05,16.24l-8.25-8.14c-.36-.36-.61-.72-1.07-.69,2.65-2.71,5.67-5.01,9.06-6.96.48-.28,1.02-.23,1.31-.45Z" fill="#e59730"/>
      <path d="M108.97,95.27c-1.15.87-2.54.4-4.09-.22-4.34-1.71-6.98-6.33-6.2-11.04.2-1.21,1.15-1.88,2.27-1.79s2.02,1.08,1.81,2.33c-.6,3.58,1.77,6.75,5.35,7.29.72.11,1.19.88,1.33,1.35.23.8-.07,1.47-.46,2.08Z" fill="#e59730"/>
      <path d="M90.51,93.64c.4,2.42,2.49,4.16,4.95,4.2,1.18.02,1.98.88,2.04,1.92.05.93-.6,2.07-1.81,2.11-5.42.18-9.95-4.61-9.25-9.86.12-.92,1.4-1.32,2.02-1.27.77.06,1.65.49,1.8,1.36l.25,1.54Z" fill="#e59730"/>
      <path d="M89.22,112.05c1.33.04,2.11.89,2.17,1.94s-.77,2.15-2.03,2.14c-5-.05-8.95-3.92-9.17-8.88-.06-1.29.77-2.22,1.93-2.29s2.13.76,2.15,2.03c.04,2.71,2.08,4.98,4.96,5.06Z" fill="#e59730"/>
      <g>
        <path d="M167.74,91.48l.04,34.24c-.89,8.48-7.82,14.79-16.18,14.86-8.17.09-15.55-6.17-16.29-14.57l-.12-12.17c0-.85.78-1.49,1.31-1.68.66-.24,1.5-.12,2.1.33l8.25,6.24c.98.74.69,2.33-.03,2.98-.86.78-1.99.67-2.91-.02l-4.6-3.43.06,6.97c.57,6.43,5.88,11.28,12.3,11.21,6.02-.07,11.89-4.82,11.93-11.25l.18-33.69c1.29.44,2.69.43,3.98,0Z" fill="#57b6ea"/>
        <ellipse cx="165.74" cy="85.66" rx="6.17" ry="6.16" fill="#e59730"/>
        <path d="M167.74,79.84c-1.29-.44-2.69-.45-3.98-.01v-17.02c0-1.01,1.15-1.55,1.88-1.59.82-.05,2.1.51,2.1,1.59v17.03Z" fill="#57b6ea"/>
        <ellipse cx="127.05" cy="79.54" rx="2.04" ry="2.04" fill="#57b6ea"/>
      </g>
    </g>
    <g>
      <path d="M184.08,169.77l.25,1.28-.05,8.12h-118.33s-.01-7.16-.01-7.16c2.11.37,4.36-.29,5.96-1.87,2.96-2.92,7.51-2.91,10.48,0,2.74,2.67,7.15,2.67,9.88,0,2.99-2.92,7.5-2.92,10.49,0,2.73,2.67,7.14,2.67,9.88,0,2.99-2.92,7.5-2.92,10.49,0,2.73,2.67,7.14,2.67,9.88,0,2.99-2.92,7.5-2.92,10.49,0,2.73,2.67,7.14,2.67,9.88,0,2.99-2.92,7.5-2.92,10.49,0,2.73,2.67,7.15,2.67,9.89,0,2.92-2.85,7.23-2.86,10.32-.36Z" fill="#a9e0f8"/>
      <g>
        <path d="M184.18,157.99l-.1,3.89c0,1.26.11,2.52.15,3.86s-.41,2.74-.15,4.03c-3.08-2.5-7.4-2.49-10.32.36-2.74,2.68-7.16,2.67-9.89,0-2.99-2.92-7.5-2.92-10.49,0-2.74,2.67-7.15,2.67-9.88,0-2.99-2.92-7.5-2.92-10.49,0-2.74,2.67-7.15,2.67-9.88,0-2.99-2.92-7.5-2.92-10.49,0-2.74,2.67-7.15,2.67-9.88,0-2.99-2.92-7.5-2.92-10.49,0-2.74,2.67-7.15,2.67-9.88,0-2.98-2.91-7.52-2.92-10.48,0-1.6,1.58-3.85,2.24-5.96,1.87l.06-12.09c3.41,3,7.64,2.45,10.48-.43,2.29-2.32,7.32-2.28,9.58.07,3.08,3.22,7.58,3.04,10.69.06s7.56-2.26,10.42.52c2.33,2.26,6.51,2.53,8.93.2,2.94-2.82,7.51-3.77,10.7-.72s7.7,3.1,10.82-.17c2.1-2.2,7.21-2.34,9.56.11,3.1,3.22,7.74,3.08,10.8-.09,2.14-2.22,7.19-2.37,9.59.11,2.79,2.88,7.3,3.25,10.22.31,1.67-1.68,4.1-2.52,6.39-1.91Z" fill="#57b6ea"/>
        <path d="M184.09,161.88l.1-3.89c.27,1.26.35,3.23-.1,3.89Z" fill="#a9e0f8"/>
      </g>
    </g>
  </g>
</svg>