<?xml version="1.0" encoding="UTF-8"?>
<svg
    xmlns="http://www.w3.org/2000/svg"
    width="250.34"
    height="362.32"
    viewBox="0 0 250.34 362.32">
  <!-- Generator: Adobe Illustrator 30.5.1, SVG Export Plug-In . SVG Version: 2.1.4 Build 3)  -->
  <path d="M250.34,145.19c0,80.19-125.17,217.13-125.17,217.13,0,0-125.17-136.94-125.17-217.13S56.04,0,125.17,0s125.17,65,125.17,145.19Z" fill="#7a0610"/>
  <circle cx="125.17" cy="120.2" r="92.19" fill="#fff3f3"/>
  <g>
    <g>
      <path d="M146.95,98.46c.69.21,1.18.97,1.18,1.73v31.18s2.66-.01,2.66-.01l.08-15.71c0-1.04,1.22-1.55,1.95-1.46,1,.13,1.8.78,1.81,1.96l.05,16.8c1.94,1.66,3.8,3.81,3.79,6.62l-.08,37.95c-.01,4.69-4.64,8.01-8.78,8.03-4.76.08-8.4-3.33-9.27-8.14l.06-37.23c0-2.93,1.59-5.34,3.83-7.09l.02-31.53c-9.31-4-13.61-14.74-13.01-24.53.31-7.33,3.41-14.67,9.24-19.11,5.25-4,12.22-4.13,17.61-.29,3.06,2.18,5.32,5.02,6.94,8.49,4.02,8.58,3.71,18.65-.97,26.9-2.2,3.87-5.34,6.82-9.39,8.57l-.1,6.23c-.02,1.03-1.16,1.67-1.99,1.66-.92-.01-1.78-.84-1.77-1.9l.04-7.65c0-1.27,1.28-1.51,2.26-1.87,3.89-1.46,6.67-4.58,8.46-8.38,4.45-9.45,2.78-22.81-5.55-28.87-4.19-3.05-9.6-2.83-13.63.4-8.09,6.48-9.44,19.97-4.6,29.3,2.02,3.88,5.07,6.71,9.16,7.94ZM154.76,176.3l-.03-35.92c0-3.04-2.6-5.2-5.43-5.1-2.61.09-5.07,2.17-5.07,5.12v36.3c0,3.03,2.65,5.16,5.33,5.11,2.9-.06,5.21-2.3,5.2-5.5Z" fill="#442204"/>
      <path d="M159.05,76.33c.14,1.5-.51,2.55-1.79,2.65-1.22.09-2.02-.88-2.1-2.21-.19-3.15-1.25-6.37-3.85-8.17-1.05-.73-1.68-1.79-1-2.91s2.03-1.17,3.15-.36c3.48,2.54,5.17,6.54,5.6,11.01Z" fill="#442204"/>
      <path d="M154.76,176.3c0,3.2-2.31,5.44-5.2,5.5-2.68.06-5.33-2.08-5.33-5.11v-36.3c0-2.95,2.46-5.03,5.07-5.12,2.82-.1,5.42,2.06,5.43,5.1l.03,35.92Z" fill="#ed3829"/>
    </g>
    <g>
      <path d="M93.58,169.77c0,.59,2.01.78,2.01,2.34v4.37c.02,2.98,2.35,5.31,5.2,5.34s5.36-2.22,5.37-5.38v-35.76c0-3.05-2.28-5.27-5.1-5.39s-5.42,2.1-5.43,5.07l-.02,8.24c0,1.11-.92,2.05-1.97,1.96-.58-.05-1.75-.59-1.75-1.38v-9.62c.02-2.75,1.76-4.92,3.8-6.6v-31.15s-4.36-2.55-4.36-2.55c-4.72-2.75-8.7-7.4-8.72-13.18l-.13-29.34c0-1.12,1.07-1.91,1.96-1.91l6.3-.02c1.21,0,2.15.89,2.15,2.22l.07,21.61c.94.13,1.78.13,2.73,0l.03-21.94c0-1.08.97-1.86,1.95-1.87h6.27c1.43,0,2.13,1.06,2.13,2.48l.09,21.35c.97.14,1.8.12,2.76-.02l.03-21.94c0-1.07.96-1.87,1.96-1.87l6.49.02c1.35,0,1.81,1.17,1.81,2.39l.04,26.95c0,5.85-2.36,11.24-7.45,14.2l-5.62,3.27v31.46c2.1,1.64,3.8,3.97,3.79,6.81l-.07,37.26c0,4.74-4.39,8.17-8.51,8.37-4.69.23-8.78-3.02-9.46-7.75l-.07-5.74c-.02-1.52,1.68-1.38,1.72-2.3ZM112.76,58.74v21.87c0,1.07-.86,1.92-1.9,1.92l-6.84-.02c-.99,0-1.79-.86-1.79-1.88v-21.95s-2.66,0-2.66,0v21.93c-.01,1.09-.9,1.92-1.93,1.92h-6.61c-1.06,0-2.01-.77-2.01-1.9v-21.95s-2.67,0-2.67,0v26.35c.01,4.19,2.01,8.05,5.57,10.12l6.61,3.85c.62.36,1,.97,1,1.77v30.58s2.67.03,2.67.03v-30.63c.01-.82.44-1.45,1.07-1.81l5.97-3.41c3.71-2.12,6.12-5.94,6.12-10.31l.04-26.55-2.67.06Z" fill="#442204"/>
      <path d="M93.58,169.77l.02-3.93c0-1.01,2-.92,1.99-2.65v-5.13c-.01-1.08-1.05-1.89-2.01-1.75l.06-5.74c1.05.09,1.96-.84,1.97-1.96l.02-8.24c0-2.98,2.6-5.19,5.43-5.07s5.1,2.33,5.1,5.39v35.76c0,3.15-2.46,5.41-5.37,5.38s-5.18-2.36-5.19-5.34v-4.37c-.02-1.56-2.03-1.75-2.03-2.34Z" fill="#ed3829"/>
      <path d="M93.59,156.31c.96-.14,1.99.67,1.99,1.75v5.13c.01,1.73-1.98,1.63-1.98,2.65.17-1.2-1.74-1.06-1.73-2.33l.08-6c0-.72,1.09-1.12,1.64-1.2Z" fill="#442204"/>
    </g>
  </g>
</svg>