<?xml version="1.0" encoding="UTF-8"?>
<svg
    xmlns="http://www.w3.org/2000/svg"
    width="250.34"
    height="362.32"
    viewBox="0 0 250.34 362.32">
  <!-- Generator: Adobe Illustrator 30.5.1, SVG Export Plug-In . SVG Version: 2.1.4 Build 3)  -->
  <path d="M250.34,145.19c0,80.19-125.17,217.13-125.17,217.13,0,0-125.17-136.94-125.17-217.13S56.04,0,125.17,0s125.17,65,125.17,145.19Z" fill="#2a7241"/>
  <circle cx="125.17" cy="117.19" r="92.19" fill="#f0fdf4"/>
  <g>
    <polygon points="82.03 50.39 82.02 60.25 82.04 131.51 82.04 183.99 74.19 183.97 74.28 50.39 82.03 50.39" fill="#2a7241" stroke="#1c603c" stroke-miterlimit="10"/>
    <path d="M129.41,126.97c-.19-.2-.32-.29-.32-.69V55.81c5.88-2.67,12.06-4.57,18.68-5.05,8.14-.6,16.14,1.39,22.96,5.81l5.42,3.52v71.95c-.86-.17-1.52-.69-2.19-1.16l-5.83-4.11c-7.43-5.24-16.38-6.71-25.3-4.72-4.74,1.06-9.21,2.74-13.41,4.93Z" fill="#2a7241" stroke="#1c603c" stroke-miterlimit="10"/>
    <path d="M129.08,55.81v70.47c.01.4.14.49.33.69l-7.67,4.01c-3.28,1.71-6.55,2.98-10.1,4.04-10.7,3.2-19.84,1.03-29.6-3.51l-.02-71.26c.45-.02.78.2,1.18.44,13.44,8.19,24.75,6.28,38.05-.9,2.66-1.43,5.2-2.79,7.83-3.98Z" fill="#2a7241" stroke="#1c603c" stroke-miterlimit="10"/>
  </g>
</svg>